<svg width="433" height="80" viewBox="0 0 433 80" fill="none" xmlns="http://www.w3.org/2000/svg">
<path d="M0.567379 75.6091L0.564629 3.19638L20.3763 0.205603L31.8486 0.206331L31.8478 12.8547L13.5369 12.8535L13.5356 33.2504L31.8471 24.0217L31.8462 38.1513L13.5347 47.494L13.5347 78.1837L0.567379 75.6091Z" fill="white"/>
<path d="M38.3315 11.0319C38.332 4.081 42.1991 0.206988 48.7956 0.207407L63.2396 0.208323C69.8361 0.208742 73.8165 4.08326 73.8161 11.0341L73.8159 12.9713L60.7363 19.8074L60.7367 12.7425L51.2969 12.7419L51.2957 32.683L73.8154 21.0616L73.8124 68.4644C73.812 75.4153 69.8311 79.2893 63.2346 79.2889L48.7906 79.2879C42.1941 79.2875 38.3275 75.413 38.3279 68.4621L38.3284 61.0555L51.2943 54.3333L51.2935 66.7537L60.7333 66.7543L60.7349 41.9135L38.3288 53.6488L38.3315 11.0319Z" fill="white"/>
<path d="M118.463 0.211828L118.459 66.644L127.899 66.6446L127.903 0.212427L140.982 0.213257L140.978 68.2408C140.977 75.7614 137.338 79.2936 129.604 79.2931L119.482 79.2924C114.818 79.2921 112.089 76.5572 112.089 71.6574C112.089 76.5572 109.246 79.2918 104.583 79.2915L93.6643 79.2908C87.0678 79.2904 83.2011 75.4159 83.2016 68.465L83.2059 0.20959L96.1714 0.210413L96.1672 66.6426L105.721 66.6432L105.725 0.21102L118.463 0.211828Z" fill="white"/>
<path d="M195.92 28.3621L195.921 12.4093L185.458 12.4086L185.456 33.4892L195.92 28.3621ZM208.43 37.2509L208.428 68.359C208.428 75.7657 204.674 79.2978 196.827 79.2973L172.943 79.2958L172.948 0.215286L197.855 0.216867C204.452 0.217285 208.432 4.0918 208.432 11.0427L208.431 27.6792C208.43 32.8069 206.838 35.8834 202.857 37.2506L208.43 37.2509ZM195.918 66.9908L195.919 41.5802L185.456 46.8212L185.454 66.9901L195.918 66.9908Z" fill="white"/>
<path d="M253.298 79.3009L240.333 79.3001L240.335 45.7991L230.781 50.6983L230.779 79.2995L217.814 79.2987L217.818 11.0433C217.819 4.09239 221.686 0.218379 228.282 0.218798L242.726 0.219714C249.323 0.220133 253.303 4.09465 253.303 11.0455L253.298 79.3009ZM240.336 31.8974L240.337 12.7539L230.784 12.7533L230.782 36.5687L240.336 31.8974Z" fill="white"/>
<path d="M285.429 32.1281L285.43 12.7568L275.877 12.7562L275.875 36.9134L285.429 32.1281ZM298.394 39.4217L288.84 44.3209L303.623 79.3041L290.089 79.3033L277.808 50.0176L275.874 51.043L275.873 79.3024L262.907 79.3015L262.912 0.220995L287.819 0.222576C294.416 0.222995 298.396 4.09751 298.396 11.0484L298.394 39.4217Z" fill="white"/>
<path d="M330.644 28.3707L330.645 12.4178L320.182 12.4172L320.18 33.4977L330.644 28.3707ZM343.154 37.2595L343.152 68.3675C343.152 75.7742 339.398 79.3064 331.551 79.3059L307.667 79.3044L307.672 0.223836L332.579 0.225417C339.176 0.225835 343.156 4.10035 343.156 11.0512L343.155 27.6878C343.154 32.8155 341.562 35.892 337.581 37.2591L343.154 37.2595ZM330.642 66.9994L330.643 41.5887L320.18 46.8297L320.178 66.9987L330.642 66.9994Z" fill="white"/>
<path d="M383.814 79.3092L352.538 79.3072L352.543 0.226684L383.819 0.228669L383.819 12.877L365.508 12.8758L365.506 33.2727L383.818 24.044L383.817 38.1736L365.506 47.5163L365.504 66.6597L383.815 66.6609L383.814 79.3092Z" fill="white"/>
<path d="M414.267 32.1363L414.268 12.765L404.714 12.7644L404.713 36.9215L414.267 32.1363ZM427.232 39.4298L417.678 44.329L432.461 79.3123L418.927 79.3114L406.645 50.0258L404.712 51.0512L404.71 79.3105L391.745 79.3097L391.75 0.229172L416.657 0.230753C423.253 0.231171 427.234 4.10568 427.233 11.0566L427.232 39.4298Z" fill="white"/>
<path d="M0.567379 75.6091L0.564629 3.19638L20.3763 0.205603L31.8486 0.206331L31.8478 12.8547L13.5369 12.8535L13.5356 33.2504L31.8471 24.0217L31.8462 38.1513L13.5347 47.494L13.5347 78.1837L0.567379 75.6091Z" fill="#8162FF"/>
<path d="M38.3315 11.0319C38.332 4.081 42.1991 0.206988 48.7956 0.207407L63.2396 0.208323C69.8361 0.208742 73.8165 4.08326 73.8161 11.0341L73.8159 12.9713L60.7363 19.8074L60.7367 12.7425L51.2969 12.7419L51.2957 32.683L73.8154 21.0616L73.8124 68.4644C73.812 75.4153 69.8311 79.2893 63.2346 79.2889L48.7906 79.2879C42.1941 79.2875 38.3275 75.413 38.3279 68.4621L38.3284 61.0555L51.2943 54.3333L51.2935 66.7537L60.7333 66.7543L60.7349 41.9135L38.3288 53.6488L38.3315 11.0319Z" fill="#8162FF"/>
<path d="M118.463 0.211828L118.459 66.644L127.899 66.6446L127.903 0.212427L140.982 0.213257L140.978 68.2408C140.977 75.7614 137.338 79.2936 129.604 79.2931L119.482 79.2924C114.818 79.2921 112.089 76.5572 112.089 71.6574C112.089 76.5572 109.246 79.2918 104.583 79.2915L93.6643 79.2908C87.0678 79.2904 83.2011 75.4159 83.2016 68.465L83.2059 0.20959L96.1714 0.210413L96.1672 66.6426L105.721 66.6432L105.725 0.21102L118.463 0.211828Z" fill="#8162FF"/>
</svg>
